<svg width="233" height="31" viewBox="0 0 233 31" fill="none" xmlns="http://www.w3.org/2000/svg">
<path d="M0 9.75955C0 5.00376 3.85533 1.14844 8.61111 1.14844H11.4815V21.241C11.4815 25.9968 7.62616 29.8521 2.87037 29.8521H0V9.75955Z" fill="#1C1D21"/>
<path d="M22.9629 1.64844H27.8964L25.3856 6.69517L25.3333 6.80037V6.91788V21.241C25.3333 25.7207 21.7018 29.3521 17.2222 29.3521H12.2923L14.7986 24.3646L14.8518 24.2587V24.1401V9.75955C14.8518 5.2799 18.4833 1.64844 22.9629 1.64844Z" fill="#1C1D21" stroke="#1C1D21"/>
<path d="M48.8893 10.9746H46.8115C46.0653 10.9625 45.3229 11.0833 44.619 11.3315C43.9885 11.5451 43.4167 11.903 42.9492 12.3768C42.4683 12.8659 42.1063 13.459 41.8911 14.1103C41.6275 14.8767 41.5024 15.6838 41.5215 16.494V24.9578H37.3149V7.31633H40.6929L41.0626 9.43229C41.7131 8.78993 42.4784 8.27539 43.3188 7.91543C44.3457 7.49636 45.4477 7.29246 46.5566 7.31633H48.8511V10.9746" fill="#1C1D21"/>
<path d="M49.0806 16.1502C49.068 14.9027 49.2975 13.6647 49.7562 12.5046C50.1849 11.3949 50.8355 10.3842 51.6683 9.53462C52.5179 8.67065 53.5322 7.98583 54.6511 7.52065C55.8654 7.02707 57.1645 6.77591 58.4752 6.78134C59.1137 6.78344 59.7502 6.85178 60.3745 6.98528C60.9522 7.10591 61.516 7.2853 62.0572 7.52065C62.5677 7.73286 63.0547 7.99772 63.5103 8.31094C63.9274 8.59137 64.3197 8.90694 64.6831 9.25419L64.9253 7.3167H68.4944V24.9709H64.9253L64.6831 23.0334C64.3143 23.3887 63.9131 23.7087 63.4848 23.9894C63.0259 24.2936 62.5394 24.5539 62.0317 24.7669C61.4905 25.0023 60.9267 25.1817 60.3491 25.3023C59.7287 25.4322 59.0963 25.4963 58.4625 25.4935C57.1524 25.5046 55.853 25.2577 54.6383 24.7669C53.5214 24.3109 52.5103 23.6297 51.6683 22.7657C50.8348 21.9142 50.1803 20.9043 49.7435 19.7957C49.2847 18.6356 49.0553 17.3976 49.0679 16.1502H49.0806ZM53.2234 16.1502C53.2174 16.9495 53.369 17.7422 53.6696 18.4828C53.9746 19.166 54.4072 19.7847 54.9443 20.3056C55.4576 20.8176 56.0689 21.2207 56.7416 21.491C57.4562 21.7691 58.2186 21.9034 58.9851 21.8862C59.7364 21.8909 60.4814 21.748 61.1776 21.4655C61.8503 21.1952 62.4616 20.7921 62.975 20.2801C63.4926 19.7565 63.9038 19.1374 64.1859 18.4573C64.4888 17.7173 64.6405 16.9242 64.6321 16.1247C64.6392 15.3335 64.4875 14.549 64.1859 13.8175C63.884 13.1363 63.4509 12.5213 62.9112 12.0075C62.3979 11.4955 61.7866 11.0923 61.1139 10.822C60.4099 10.5342 59.6564 10.387 58.8959 10.3887C58.1402 10.3816 57.3906 10.5246 56.6906 10.8093C56.0179 11.0796 55.4066 11.4828 54.8933 11.9947C54.3782 12.5178 53.971 13.1372 53.6951 13.8175C53.3875 14.552 53.2314 15.3411 53.2362 16.1374L53.2234 16.1502Z" fill="#1C1D21"/>
<path d="M70.8014 16.1498C70.7951 14.9029 71.0243 13.666 71.477 12.5042C71.9048 11.3852 72.556 10.3651 73.391 9.50599C74.226 8.64692 75.2272 7.96693 76.3336 7.50751C77.5443 7.00197 78.8459 6.75034 80.1578 6.7682C81.3154 6.74807 82.465 6.96496 83.5357 7.40553C84.4673 7.79864 85.3284 8.34113 86.0851 9.01162V4.97104C86.0851 2.66895 87.9514 0.802734 90.2534 0.802734V0.802734V25.0215H86.6843L86.4293 22.9565C86.0654 23.3361 85.664 23.6777 85.2311 23.9763C84.777 24.3025 84.29 24.5802 83.7779 24.8048C83.2355 25.043 82.6722 25.2307 82.0953 25.3656C81.4797 25.4996 80.8516 25.568 80.2215 25.5696C78.9105 25.578 77.6108 25.3267 76.3974 24.8303C75.2882 24.3715 74.283 23.6936 73.4419 22.8372C72.6008 21.9808 71.9412 20.9636 71.5025 19.8463C71.0397 18.687 70.8059 17.449 70.8141 16.2008L70.8014 16.1498ZM74.9824 16.2008C74.9764 17.0001 75.128 17.7928 75.4286 18.5334C75.7336 19.2166 76.1662 19.8353 76.7033 20.3562C77.2166 20.8682 77.8279 21.2713 78.5006 21.5416C79.1906 21.791 79.9215 21.9078 80.6549 21.8858C81.4062 21.8905 82.1512 21.7476 82.8474 21.4652C83.5201 21.1949 84.1314 20.7917 84.6447 20.2797C85.1625 19.7587 85.57 19.1388 85.843 18.4569C86.1521 17.7188 86.304 16.9244 86.2891 16.1243C86.3027 15.3326 86.1507 14.5467 85.843 13.8171C85.5654 13.1384 85.1535 12.5227 84.632 12.0071C84.1165 11.4978 83.5058 11.095 82.8347 10.8217C82.1409 10.5474 81.4009 10.4089 80.6549 10.4138C79.8992 10.4067 79.1497 10.5497 78.4496 10.8344C77.7769 11.1047 77.1656 11.5079 76.6523 12.0198C76.1372 12.543 75.73 13.1623 75.4541 13.8426C75.1411 14.5674 74.9764 15.3476 74.9697 16.137L74.9824 16.2008Z" fill="#1C1D21"/>
<path d="M93.1216 2.33266C93.1199 2.02078 93.1851 1.71215 93.3128 1.42763C93.4362 1.14893 93.6139 0.89761 93.8355 0.688331C94.0735 0.469352 94.3501 0.296465 94.6513 0.178461C95.3409 -0.0594869 96.0904 -0.0594869 96.78 0.178461C97.0889 0.296283 97.374 0.469024 97.6214 0.688331C97.8469 0.894175 98.0252 1.14638 98.144 1.42763C98.2717 1.71215 98.3369 2.02078 98.3352 2.33266C98.3371 2.64045 98.2719 2.94495 98.144 3.22492C98.0282 3.50783 97.8494 3.76066 97.6214 3.96424C97.3796 4.18811 97.0928 4.35762 96.78 4.46136C96.4377 4.58846 96.0743 4.64903 95.7093 4.63981C95.3525 4.64927 94.9974 4.58864 94.664 4.46136C94.3604 4.35438 94.0825 4.18504 93.8482 3.96424C93.6201 3.75783 93.4378 3.506 93.3128 3.22492C93.1849 2.94495 93.1197 2.64045 93.1216 2.33266ZM93.5805 7.31662H97.7871V24.9708H93.5805V7.31662Z" fill="#1C1D21"/>
<path d="M100.094 16.1505C100.088 14.9 100.331 13.6608 100.808 12.5049C101.278 11.3893 101.968 10.3794 102.835 9.53491C103.718 8.66928 104.761 7.98506 105.907 7.52094C107.146 7.02135 108.472 6.77015 109.808 6.78163C111.148 6.7721 112.477 7.0232 113.721 7.52094C114.871 7.98476 115.919 8.66892 116.806 9.53491C117.673 10.3794 118.362 11.3893 118.833 12.5049C119.32 13.6581 119.567 14.8985 119.559 16.1505C119.566 17.4052 119.324 18.6487 118.845 19.8088C118.375 20.9205 117.686 21.9262 116.819 22.766C115.929 23.6325 114.876 24.3129 113.721 24.7672C112.467 25.262 111.13 25.5087 109.782 25.4938C108.473 25.4994 107.174 25.2527 105.958 24.7672C104.237 24.0804 102.763 22.8909 101.728 21.3537C100.694 19.8166 100.147 18.0033 100.158 16.1505H100.094ZM104.326 16.1505C104.315 16.9449 104.462 17.7336 104.76 18.4704C105.036 19.1507 105.443 19.77 105.958 20.2931C106.457 20.8044 107.056 21.2078 107.717 21.4786C108.406 21.7721 109.148 21.9197 109.897 21.912C110.644 21.9177 111.385 21.7747 112.077 21.4913C112.74 21.2177 113.342 20.8147 113.848 20.3059C114.356 19.7788 114.758 19.1603 115.034 18.4831C115.33 17.7416 115.477 16.9489 115.467 16.1505C115.479 15.3601 115.331 14.5756 115.034 13.8433C114.761 13.1684 114.358 12.5535 113.848 12.0333C113.34 11.5214 112.733 11.1181 112.064 10.8478C110.671 10.279 109.11 10.279 107.717 10.8478C107.056 11.1186 106.457 11.522 105.958 12.0333C105.443 12.5564 105.036 13.1757 104.76 13.856C104.444 14.5759 104.275 15.3516 104.263 16.1377L104.326 16.1505Z" fill="#1C1D21"/>
<path d="M124.327 19.6558C124.342 19.992 124.448 20.3178 124.633 20.5991C124.834 20.9025 125.094 21.1625 125.397 21.3639C125.739 21.5933 126.112 21.7695 126.506 21.8865C126.955 22.0071 127.418 22.0671 127.883 22.0649C128.895 22.1365 129.908 21.9339 130.815 21.4786C131.102 21.3204 131.341 21.0878 131.507 20.8051C131.673 20.5225 131.76 20.2003 131.758 19.8725C131.77 19.5253 131.647 19.1871 131.414 18.9293C131.134 18.6454 130.795 18.4277 130.42 18.2919C129.902 18.1006 129.369 17.9514 128.826 17.8458C128.206 17.7013 127.492 17.5611 126.685 17.4251L125.41 17.1957C124.977 17.1021 124.551 16.9786 124.136 16.826C123.691 16.6767 123.264 16.4801 122.861 16.2397C122.471 16 122.118 15.7036 121.816 15.3602C121.503 14.9794 121.257 14.5484 121.089 14.0855C120.899 13.5321 120.809 12.9496 120.821 12.3647C120.809 11.5896 120.961 10.8206 121.267 10.1085C121.574 9.41378 122.052 8.80843 122.657 8.34948C123.37 7.80563 124.185 7.41112 125.053 7.18953C126.188 6.88812 127.359 6.74654 128.533 6.76889C129.506 6.7541 130.474 6.89613 131.401 7.18953C132.196 7.42656 132.936 7.81624 133.581 8.33674C134.16 8.81548 134.626 9.41614 134.945 10.0958C135.27 10.8032 135.436 11.5735 135.429 12.3519H131.261C131.239 12.0489 131.149 11.7549 130.996 11.4921C130.844 11.2292 130.634 11.0046 130.382 10.8351C129.754 10.4039 129.001 10.1932 128.24 10.236C127.737 10.2215 127.234 10.2817 126.749 10.4144C126.385 10.5038 126.043 10.6641 125.742 10.8861C125.493 11.0595 125.292 11.2916 125.155 11.5617C125.031 11.8065 124.965 12.0772 124.964 12.3519C124.953 12.6451 125.043 12.9333 125.219 13.1677C125.432 13.4085 125.698 13.5961 125.997 13.7158C126.409 13.8787 126.836 14.0025 127.271 14.0855C127.794 14.1875 128.419 14.2894 129.132 14.3659C129.846 14.4424 130.828 14.6719 131.682 14.8758C132.462 15.0534 133.213 15.341 133.913 15.7298C134.549 16.0973 135.087 16.6133 135.48 17.2339C135.913 17.9511 136.122 18.7811 136.08 19.6176C136.1 20.5045 135.894 21.382 135.48 22.1669C135.078 22.9146 134.495 23.5499 133.785 24.0152C132.982 24.5449 132.087 24.9209 131.146 25.1241C130.022 25.3791 128.871 25.5031 127.717 25.4938C126.599 25.5152 125.485 25.3383 124.429 24.9712C123.569 24.6662 122.774 24.2037 122.083 23.6073C121.488 23.0846 121.01 22.4416 120.681 21.7208C120.382 21.0551 120.226 20.3344 120.222 19.6048H124.314" fill="#1C1D21"/>
<path d="M157.546 16.1376C157.551 17.3843 157.322 18.621 156.87 19.7831C156.444 20.8997 155.795 21.9176 154.962 22.7746C154.129 23.6316 153.13 24.3096 152.026 24.7671C150.813 25.2621 149.513 25.5092 148.202 25.4936C147.043 25.5152 145.89 25.3073 144.811 24.8818C143.874 24.5063 143.01 23.9668 142.262 23.2885V26.8319C142.262 29.134 140.396 31.0002 138.094 31.0002V31.0002V7.31683H141.484L141.816 9.3818C142.19 9.02134 142.591 8.68902 143.014 8.38756C143.477 8.06863 143.968 7.79137 144.48 7.55902C145.031 7.3095 145.608 7.12142 146.201 6.99816C146.832 6.85263 147.478 6.77992 148.126 6.78147C149.437 6.77271 150.737 7.024 151.95 7.52078C153.065 7.97367 154.076 8.65043 154.92 9.50927C155.75 10.3686 156.404 11.3818 156.845 12.492C157.309 13.6509 157.543 14.8892 157.533 16.1376H157.546ZM153.365 16.1376C153.371 15.3382 153.219 14.5456 152.919 13.8049C152.64 13.1282 152.229 12.5138 151.71 11.9973C151.192 11.4809 150.575 11.0728 149.898 10.7967C149.201 10.5142 148.456 10.3713 147.705 10.376C146.945 10.3703 146.192 10.5132 145.487 10.7967C144.82 11.0703 144.213 11.4732 143.702 11.9821C143.184 12.4999 142.772 13.115 142.491 13.7922C142.19 14.537 142.038 15.334 142.045 16.1376C142.038 16.9287 142.19 17.7132 142.491 18.4447C142.769 19.1235 143.181 19.7391 143.702 20.2547C144.518 21.0303 145.538 21.5554 146.643 21.7678C147.748 21.9802 148.891 21.8709 149.936 21.4529C150.606 21.1856 151.214 20.7819 151.72 20.2675C152.259 19.7531 152.692 19.1382 152.995 18.4575C153.274 17.7212 153.404 16.9371 153.378 16.1503L153.365 16.1376Z" fill="#1C1D21"/>
<path d="M177.533 24.9704H173.339V15.5124C173.358 14.6986 173.255 13.8865 173.033 13.1033C172.855 12.5222 172.545 11.99 172.128 11.5482C171.727 11.1504 171.231 10.861 170.688 10.7069C170.053 10.5292 169.396 10.4433 168.737 10.4519C168.09 10.4489 167.449 10.5746 166.851 10.8216C166.27 11.0411 165.747 11.3898 165.321 11.8413C164.881 12.3057 164.534 12.8511 164.301 13.4474C164.051 14.1068 163.926 14.8071 163.932 15.5124V25.0342H159.687V4.95822C159.687 2.67022 161.542 0.81543 163.83 0.81543V0.81543V8.94783C164.588 8.29898 165.45 7.78194 166.379 7.41823C167.376 7.00128 168.447 6.78888 169.528 6.79364C170.742 6.76714 171.952 6.9615 173.097 7.36724C174.072 7.69728 174.949 8.26709 175.646 9.02432C176.332 9.80145 176.829 10.7261 177.1 11.7266C177.433 12.9254 177.592 14.1662 177.571 15.4104V24.9832" fill="#1C1D21"/>
<path d="M179.343 16.1505C179.337 14.9 179.58 13.6608 180.057 12.5049C180.527 11.3893 181.216 10.3794 182.084 9.53491C182.966 8.66928 184.01 7.98506 185.156 7.52094C186.395 7.02135 187.72 6.77015 189.056 6.78163C190.396 6.7721 191.726 7.0232 192.97 7.52094C194.119 7.98476 195.167 8.66892 196.055 9.53491C196.922 10.3794 197.611 11.3893 198.081 12.5049C198.569 13.6581 198.816 14.8985 198.808 16.1505C198.824 16.3796 198.824 16.6096 198.808 16.8388C198.808 17.0045 198.808 17.1702 198.744 17.3359H183.448C183.568 18.027 183.819 18.6888 184.187 19.2861C184.522 19.8537 184.953 20.3584 185.462 20.7775C185.972 21.1823 186.544 21.501 187.157 21.7208C187.767 21.9388 188.409 22.0509 189.056 22.0522C190.011 22.0719 190.953 21.8341 191.784 21.3639C192.538 20.9421 193.16 20.3201 193.582 19.5666H198.094C197.788 20.372 197.358 21.1246 196.819 21.7972C196.261 22.5272 195.595 23.1677 194.844 23.6965C194.034 24.2451 193.15 24.6744 192.218 24.9712C191.181 25.307 190.095 25.4706 189.005 25.4556C187.67 25.4711 186.345 25.2242 185.105 24.729C183.959 24.2649 182.915 23.5806 182.033 22.715C181.165 21.8705 180.476 20.8606 180.006 19.745C179.528 18.5939 179.285 17.3587 179.292 16.1122L179.343 16.1505ZM189.031 10.0958C188.363 10.0874 187.699 10.1952 187.068 10.4144C186.484 10.6098 185.941 10.9077 185.462 11.294C184.984 11.6718 184.574 12.1288 184.251 12.6451C183.915 13.1716 183.666 13.7482 183.511 14.3532H194.372C194.217 13.7507 193.972 13.1749 193.645 12.6451C193.336 12.1334 192.944 11.6768 192.485 11.294C192.023 10.9115 191.496 10.6138 190.93 10.4144C190.335 10.2133 189.71 10.1184 189.082 10.134L189.031 10.0958Z" fill="#1C1D21"/>
<path d="M212.422 10.975H210.344C209.598 10.9618 208.855 11.0826 208.152 11.3319C207.521 11.5454 206.949 11.9034 206.482 12.3771C205.997 12.8655 205.631 13.4586 205.411 14.1107C205.154 14.8786 205.029 15.6846 205.041 16.4943V24.9582H200.873V7.3167H204.302L204.684 9.43266C205.304 8.78112 206.039 8.24959 206.851 7.86481C207.878 7.44469 208.98 7.24075 210.089 7.26572H212.384V10.924" fill="#1C1D21"/>
<path d="M212.588 16.1504C212.575 14.8993 212.818 13.6588 213.301 12.5048C213.767 11.3898 214.452 10.3798 215.315 9.53481C216.203 8.66882 217.251 7.98466 218.4 7.52084C219.635 7.02289 220.956 6.77172 222.288 6.78153C223.632 6.77197 224.966 7.02304 226.214 7.52084C227.362 7.98783 228.41 8.67161 229.299 9.53481C230.158 10.3833 230.843 11.3924 231.313 12.5048C231.81 13.6553 232.062 14.897 232.052 16.1504C232.068 16.3795 232.068 16.6095 232.052 16.8387C232.052 17.0044 232.052 17.1701 231.989 17.3358H216.692C216.817 18.0276 217.072 18.6894 217.444 19.286C217.779 19.8536 218.21 20.3583 218.719 20.7774C219.226 21.1795 219.794 21.498 220.402 21.7207C221.016 21.9377 221.662 22.0498 222.314 22.0521C223.268 22.0718 224.211 21.834 225.041 21.3638C225.795 20.942 226.417 20.32 226.839 19.5665H231.351C231.04 20.3694 230.61 21.1213 230.077 21.7971C229.517 22.5303 228.846 23.1712 228.088 23.6964C226.38 24.8964 224.337 25.5255 222.25 25.4937C220.919 25.5075 219.598 25.2607 218.362 24.7671C217.212 24.3033 216.164 23.6191 215.277 22.7532C214.402 21.8926 213.709 20.8643 213.24 19.7297C212.772 18.5952 212.537 17.3778 212.549 16.1504H212.588ZM222.288 10.1339C221.62 10.1245 220.956 10.2324 220.325 10.4526C219.738 10.6478 219.19 10.9456 218.706 11.3321C217.74 12.1096 217.058 13.1854 216.769 14.3913H227.616C227.471 13.7876 227.23 13.2109 226.903 12.6832C226.589 12.1711 226.193 11.7145 225.73 11.3321C225.269 10.9465 224.742 10.6484 224.175 10.4526C223.583 10.2368 222.957 10.1289 222.326 10.1339H222.288Z" fill="#1C1D21"/>
</svg>
